<?xml version="1.0" encoding="UTF-8" standalone="no"?>
<!-- Created with Inkscape (http://www.inkscape.org/) -->

<svg
   xmlns:dc="http://purl.org/dc/elements/1.1/"
   xmlns:cc="http://creativecommons.org/ns#"
   xmlns:rdf="http://www.w3.org/1999/02/22-rdf-syntax-ns#"
   xmlns:svg="http://www.w3.org/2000/svg"
   xmlns="http://www.w3.org/2000/svg"
   xmlns:sodipodi="http://sodipodi.sourceforge.net/DTD/sodipodi-0.dtd"
   xmlns:inkscape="http://www.inkscape.org/namespaces/inkscape"
   id="svg2985"
   version="1.1"
   inkscape:version="0.48.1 "
   width="2000"
   height="889"
   sodipodi:docname="cartão-hipercard-fatura.gif">
  <metadata
     id="metadata2991">
    <rdf:RDF>
      <cc:Work
         rdf:about="">
        <dc:format>image/svg+xml</dc:format>
        <dc:type
           rdf:resource="http://purl.org/dc/dcmitype/StillImage" />
        <dc:title></dc:title>
      </cc:Work>
    </rdf:RDF>
  </metadata>
  <defs
     id="defs2989" />
  <sodipodi:namedview
     pagecolor="#ffffff"
     bordercolor="#666666"
     borderopacity="1"
     objecttolerance="10"
     gridtolerance="10"
     guidetolerance="10"
     inkscape:pageopacity="0"
     inkscape:pageshadow="2"
     inkscape:window-width="1360"
     inkscape:window-height="706"
     id="namedview2987"
     showgrid="false"
     inkscape:zoom="0.24"
     inkscape:cx="1000"
     inkscape:cy="444.5"
     inkscape:window-x="-8"
     inkscape:window-y="-8"
     inkscape:window-maximized="1"
     inkscape:current-layer="svg2985" />
  <path
     inkscape:connector-curvature="0"
     id="path2997"
     d="m 836.75,877.05537 -826.24997,0.2946 0,-1.9885 c 0,-1.0937 1.3178,-8.185 2.9284,-15.7584 1.6106,-7.5733 4.1146,-19.6197 5.5644,-26.7697 1.4497,-7.15 3.9285,-19.3 5.508303,-27 1.5798,-7.7 4.2046,-20.525 5.8329,-28.5 1.6283,-7.975 4.1791,-20.575 5.6684,-28 1.4893,-7.425 3.9757,-19.575 5.5255,-27 1.5497,-7.425 4.1918,-20.25 5.8714,-28.5 1.6795,-8.25 4.2326,-20.85 5.6735,-28 1.441,-7.15 3.7309,-18.175 5.0887,-24.5 1.3578,-6.325 3.0888,-14.875 3.8466,-19 0.7579,-4.125 3.2102,-16.275 5.4496,-27 2.2395,-10.725 4.7118,-22.875 5.4941,-27 0.7823,-4.125 3.2657,-16.275 5.5186,-27 2.253,-10.725 4.728,-22.875 5.5,-27 0.7721,-4.125 3.2608,-16.275 5.5306,-27 2.2698,-10.725 4.7196,-22.65 5.444,-26.5 0.7244,-3.85 2.7085,-13.75 4.409,-22 1.700597,-8.25 4.918497,-23.775 7.150797,-34.5 2.2324,-10.725 6.0507,-29.4 8.4851,-41.5 2.4344,-12.1 5.3435,-26.5 6.4646,-32 1.1212,-5.5 3.1486,-15.4 4.5054,-22 1.3568,-6.6 3.8206,-18.525 5.475,-26.5 1.6545,-7.975 4.3463,-21.025 5.9819,-29 1.6356,-7.975 4.1561,-20.35003 5.6009,-27.50003 1.4449,-7.15 3.9109,-19.075 5.48,-26.5 1.5691,-7.425 4.2682,-20.475 5.9979,-29 1.7297,-8.525 4.6273,-21.575 6.439,-29 1.8118,-7.425 4.3732,-16.425 5.692,-20 1.3189,-3.575 4.96,-11.32472 8.0914,-17.22161 l 5.6934,-10.721613 5.1758,-6.77839 c 2.8467,-3.72812 7.9291,-9.61926 11.2943,-13.09143 3.3651,-3.47217 9.0435,-8.69688 12.6185,-11.61046 3.575,-2.91357 8.75,-6.84564 11.5,-8.73791 2.75,-1.89228 8.15,-5.20509 12,-7.36182 3.85,-2.15672 9.25,-4.98099 12,-6.27614 2.75,-1.29515 8.375,-3.65889 12.5,-5.25274 4.125,-1.59386 12,-4.26547 17.5,-5.93691 5.5,-1.67144 15.8241,-4.1908 22.9424,-5.59857 7.1183,-1.40778 18.3683,-3.28806 25,-4.17841 l 12.0576,-1.61881 826.74997,-0.31475 826.75,-0.31474 0,1.98738 c 0,1.09306 -1.3264,8.18377 -2.9476,15.75715 -1.6212,7.57337 -4.3301,20.51977 -6.0197,28.76977 -1.6897,8.25 -4.156,20.175 -5.4807,26.5 -1.3248,6.325003 -3.8327,18.475003 -5.5731,27.000003 -1.7405,8.525 -4.4183,21.575 -5.9506,29 -1.5324,7.425 -4.0131,19.575 -5.5127,27 -1.4997,7.425 -3.9955,19.575 -5.5462,27 -1.5507,7.425 -3.955,19.125 -5.3429,26 -1.3878,6.875 -3.9001,19.25003 -5.5828,27.50003 -1.6826,8.25 -4.3855,21.3 -6.0064,29 -1.6209,7.7 -4.09,19.625 -5.487,26.5 -1.397,6.875 -3.9111,19.25 -5.5869,27.5 -1.6758,8.25 -4.3726,21.3 -5.993,29 -1.6203,7.7 -4.0353,19.4 -5.3667,26 -1.3313,6.6 -3.8363,18.975 -5.5666,27.5 -1.7303,8.525 -4.2525,20.9 -5.6049,27.5 -1.3524,6.6 -3.7683,18.3 -5.3687,26 -1.6003,7.7 -4.3359,20.975 -6.079,29.5 -1.7431,8.525 -4.2383,20.675 -5.5449,27 -1.3066,6.325 -3.7519,18.25 -5.434,26.5 -1.6822,8.25 -4.3585,21.3 -5.9475,29 -1.5889,7.7 -4.081,19.85 -5.5379,27 -1.4569,7.15 -3.9894,19.525 -5.6278,27.5 -1.6384,7.975 -4.3143,21.025 -5.9466,29 -1.6322,7.975 -4.0783,19.9 -5.4359,26.5 -1.3576,6.6 -3.8392,18.75 -5.5147,27 -1.6756,8.25 -4.4013,21.2508 -6.0572,28.8907 l -3.0107,13.8907 -3.5878,9.6093 c -1.9734,5.2851 -4.9395,12.3093 -6.5915,15.6093 -1.6519,3.3 -5.0168,9.1222 -7.4775,12.9384 -2.4606,3.8161 -5.8906,8.7058 -7.6222,10.866 -1.7316,2.1603 -6.9434,7.7372 -11.5818,12.3931 l -8.4334,8.4653 -8.1155,5.7677 c -4.4636,3.1722 -9.2715,6.3981 -10.6844,7.1686 -1.4129,0.7705 -6.7909,3.5153 -11.9511,6.0996 -5.1601,2.5843 -12.4495,5.8731 -16.1986,7.3084 -3.7491,1.4353 -11.1741,3.8789 -16.5,5.4301 -5.3259,1.5512 -11.0335,3.0788 -12.6835,3.3946 -1.65,0.3158 -7.3779,1.501 -12.7286,2.6338 -5.3507,1.1328 -16.1507,2.8251 -24,3.7607 l -14.2714,1.7011 -826.25,0.2946 z m -293.9654,-213.722 21.50142,0 0.60699,-1.5818 c 0.33385,-0.87 0.60699,-2.9153 0.60699,-4.5452 0,-1.6299 0.70873,-7.5556 1.57495,-13.1682 0.86623,-5.6127 2.89909,-18.5298 4.51747,-28.7048 1.61838,-10.175 4.04169,-25.475 5.38514,-34 1.34344,-8.525 2.98303,-19.4375 3.64354,-24.25 0.66051,-4.8125 1.46675,-8.75 1.79163,-8.75 0.32489,0 1.71493,2.1265 3.08899,4.7256 l 2.49828,4.7257 5.54364,5.5854 5.54365,5.5854 6.82373,2.7317 6.82372,2.7317 8.13263,1.0543 8.13263,1.0542 10.32316,-0.6333 10.32317,-0.6333 11.17683,-2.8925 11.17684,-2.8925 6,-2.7387 c 3.3,-1.5063 9.15,-4.7904 13,-7.298 l 7,-4.5594 6.52674,-6.5232 c 3.5897,-3.5877 8.6522,-9.3407 11.25,-12.7843 2.59779,-3.4436 4.72326,-6.5126 4.72326,-6.8198 0,-0.3073 1.27632,-2.4398 2.83626,-4.7388 1.55995,-2.2991 4.75248,-8.6802 7.09452,-14.1802 2.34205,-5.5 6.00227,-15.4 8.13383,-22 l 3.87557,-12 2.0033,-10.3945 c 1.10181,-5.717 2.51924,-15.167 3.14984,-21 l 1.14656,-10.6055 -0.66218,-9 -0.66218,-9 -2.08666,-9 -2.08666,-9 -3.37782,-6.7384 -3.37782,-6.7384 -6.52471,-6.9165 -6.52472,-6.9166 -7.71856,-3.9895 -7.71857,-3.9896 -8.5,-2.0351 -8.5,-2.0351 -8.5,-0.624 -8.5,-0.6239 -9.46865,1.0881 -9.46865,1.088 -7.72833,1.9733 -7.72834,1.9732 -6.71377,3.1075 c -3.69258,1.7091 -9.06561,4.6119 -11.94006,6.4507 -2.87446,1.8388 -5.83961,3.9544 -6.58924,4.7013 -0.74963,0.747 -2.54431,2.1307 -3.98819,3.0748 l -2.62523,1.7167 1.83581,-8.7833 c 1.0097,-4.8308 1.85355,-9.3457 1.87523,-10.0332 l 0.0394,-1.25 -18.33348,0 -18.33349,0 -3.21477,20.25 c -1.76813,11.1375 -4.55981,28.35 -6.20373,38.25 -1.64393,9.9 -4.12293,24.75 -5.50888,33 -1.38596,8.25 -3.85812,22.875 -5.49369,32.5 -1.63557,9.625 -4.33891,24.925 -6.00743,34 -1.66851,9.075 -4.11286,22.35 -5.43189,29.5 -1.31902,7.15 -3.80158,20.65 -5.51679,30 -1.7152,9.35 -4.47159,24.2 -6.12531,33 -1.65371,8.8 -4.34489,22.75 -5.98039,31 -1.6355,8.25 -3.21963,16.0125 -3.5203,17.25 l -0.54667,2.25 21.50142,0 z m 92.56433,-115.6185 -8.34893,0.5019 -5.45733,-0.9633 -5.45733,-0.9634 -5.54267,-2.5306 -5.54267,-2.5306 -3.87233,-3.6978 -3.87232,-3.6977 -2.23511,-5 c -1.22931,-2.75 -2.80832,-7.4216 -3.5089,-10.3813 l -1.27379,-5.3812 0.51035,-8.6188 0.51035,-8.6187 2.57664,-13.5 c 1.41715,-7.425 3.9617,-21.375 5.65455,-31 1.69285,-9.625 4.2559,-23.7278 5.69567,-31.3396 l 2.61776,-13.8396 5.7325,-4.7706 c 3.15287,-2.6238 8.14722,-6.1404 11.09856,-7.8146 l 5.36607,-3.044 7,-2.1668 7,-2.1668 9,-0.5284 9,-0.5284 7.32825,1.5619 7.32825,1.5619 5.17175,2.3818 5.17175,2.3818 4.33671,4.3601 4.33671,4.36 2.33963,4.617 c 1.2868,2.5394 3.09418,7.5099 4.01641,11.0457 l 1.67677,6.4286 -0.51362,19 -0.51363,19 -2.56823,11.2304 c -1.41253,6.1768 -4.10144,15.6268 -5.97536,21 l -3.40712,9.7696 -4.17257,7.9084 c -2.29491,4.3497 -5.83377,10.2276 -7.86413,13.0621 -2.03036,2.8344 -5.26657,6.5061 -7.19157,8.1592 -1.925,1.6531 -5.14884,4.2367 -7.16409,5.7412 l -3.6641,2.7354 -8.48698,2.8866 -8.48698,2.8867 -8.34892,0.5019 z M 843,575.20597 l 11,0.1257 11,-1.0033 c 6.05,-0.5518 15.95,-1.7006 22,-2.5528 6.05,-0.8523 16.50136,-2.76 23.22524,-4.2394 l 12.22523,-2.6898 0.60889,-4.5065 c 0.33489,-2.4786 1.70786,-9.8572 3.05105,-16.3969 l 2.44215,-11.8904 -0.53884,-0.5388 -0.53883,-0.5389 -3.73745,1.805 c -2.05559,0.9927 -8.45805,3.3607 -14.22769,5.2623 l -10.49025,3.4573 -11.00975,2.1327 -11.00975,2.1327 -17.5,0.034 -17.5,0.034 -6,-1.9162 c -3.3,-1.0539 -8.15366,-2.9822 -10.7859,-4.285 l -4.78591,-2.3689 -3.94999,-3.5685 -3.94999,-3.5686 -3.08188,-5.3866 -3.08189,-5.3866 -1.93222,-6.7566 -1.93222,-6.7566 -0.0138,-12.5032 -0.0138,-12.5032 1.71543,-11.1541 1.71542,-11.1542 15.04839,-0.703 15.0484,-0.7031 55.6262,0.3572 55.6262,0.3572 1.67956,-7.1247 c 0.92375,-3.9186 2.33604,-12.0186 3.13841,-18 l 1.45886,-10.8753 0.0308,-9.1482 0.0308,-9.1482 -1.58387,-6.8295 -1.58387,-6.8295 -2.61886,-4.5223 c -1.44038,-2.4872 -3.97831,-6.0918 -5.63984,-8.0101 -1.66153,-1.9183 -4.62825,-4.6229 -6.59272,-6.0102 -1.96446,-1.3873 -5.82175,-3.7187 -8.57175,-5.1807 l -5,-2.6584 -8.73619,-2.1055 -8.73619,-2.1055 -10.76381,-1.0291 -10.76381,-1.0292 -10,0.6512 -10,0.6512 -12,2.3042 -12,2.3043 -7.5,2.9987 c -4.125,1.6493 -10.425,4.6569 -14,6.6836 -3.575,2.0267 -8.525,5.3258 -11,7.3313 -2.475,2.0054 -6.76021,5.9043 -9.52268,8.6641 -2.76248,2.7598 -6.84874,7.7178 -9.08058,11.0178 -2.23184,3.3 -5.6533,9.15 -7.60323,13 -1.94994,3.85 -4.49078,9.25 -5.64632,12 -1.15554,2.75 -3.25539,8.375 -4.66634,12.5 -1.41094,4.125 -3.62875,12 -4.92847,17.5 -1.29972,5.5 -3.08071,14.5537 -3.95775,20.1193 l -1.59459,10.1198 0.0148,14.8807 0.0148,14.8807 1.51991,6.5 c 0.83595,3.575 2.43429,8.975 3.55186,12 1.11758,3.025 3.18416,7.525 4.59242,10 1.40825,2.475 4.41576,6.4599 6.68336,8.8554 2.26759,2.3955 6.37289,6.0304 9.12289,8.0775 2.75,2.0471 7.64566,4.9263 10.87925,6.3984 l 5.87924,2.6764 8.19739,1.9816 c 4.50857,1.0899 11.31291,2.3812 15.12076,2.8697 3.80785,0.4884 11.87336,0.9445 17.92336,1.0136 z m 18.83607,-140.8726 c -27.68484,0 -50.33607,-0.1982 -50.33607,-0.4404 0,-0.2422 1.18121,-3.7297 2.62491,-7.75 1.4437,-4.0203 3.97924,-10.0042 5.63453,-13.2976 l 3.0096,-5.988 6.61548,-6.5793 6.61548,-6.5793 6.5,-3.1081 c 3.575,-1.7095 8.3,-3.5708 10.5,-4.1363 2.2,-0.5655 8.5,-1.3157 14,-1.6671 l 10,-0.6391 7.67933,0.9869 7.67932,0.9869 5.58071,2.555 5.58072,2.5549 3.06135,3.3007 c 1.68375,1.8154 3.69024,4.4889 4.45888,5.941 l 1.39752,2.6402 0.92289,5.8598 0.92289,5.8598 -1.05574,9.75 -1.05574,9.75 -50.33606,0 z m 299.17003,140.878 11.0062,0.122 12.4938,-1.4807 c 6.8717,-0.8144 16.0188,-2.164 20.327,-2.9991 4.3083,-0.8351 11.2833,-2.4929 15.5,-3.6839 4.2168,-1.1911 8.0318,-2.4788 8.4777,-2.8617 0.4459,-0.3829 1.6375,-4.9213 2.6479,-10.0854 1.0104,-5.1641 2.2832,-12.0892 2.8284,-15.3892 0.5452,-3.3 0.827,-6.1767 0.6263,-6.3925 -0.2008,-0.2159 -0.9384,0.063 -1.6392,0.6195 -0.7008,0.5565 -5.6074,2.6214 -10.9035,4.5884 l -9.6292,3.5765 -13.7123,2.6567 -13.7122,2.6566 -11.6585,-0.3978 -11.6585,-0.3979 -6.622,-2.2965 -6.6221,-2.2965 -5.117,-4.4763 -5.1171,-4.4762 -3.3943,-6.182 -3.3943,-6.182 -1.6166,-8.2703 -1.6166,-8.2703 0.01,-10.7297 0.01,-10.7297 1.9645,-13 1.9646,-13 2.0786,-7 c 1.1433,-3.85 2.4369,-8.35 2.8747,-10 0.4377,-1.65 2.2717,-6.375 4.0754,-10.5 1.8037,-4.125 5.0213,-10.5004 7.1503,-14.1676 l 3.8707,-6.6676 4.7541,-4.9258 4.754,-4.9258 5.0345,-3.1226 5.0346,-3.1226 6.4654,-1.9914 c 3.556,-1.0952 9.8405,-2.5173 13.9655,-3.1602 l 7.5,-1.1687 11,0.552 11,0.552 13,2.6021 13,2.6021 5.2875,1.972 c 2.9081,1.0847 5.4146,1.9721 5.5698,1.9721 0.1553,0 0.8528,-3.7125 1.5499,-8.25 0.6972,-4.5375 1.9381,-12.0028 2.7575,-16.5894 0.8194,-4.5867 1.2925,-8.5368 1.0513,-8.778 -0.2413,-0.2412 -4.1489,-0.8617 -8.6836,-1.3789 -4.5348,-0.5172 -16.8597,-1.4355 -27.3887,-2.0407 l -19.1437,-1.1003 -13.5,1.036 -13.5,1.036 -10,2.1014 -10,2.1015 -6.4401,2.5758 c -3.542,1.4168 -8.7301,3.9733 -11.529,5.6812 -2.7989,1.708 -6.3617,4.0054 -7.9173,5.1054 -1.5557,1.1 -6.2752,5.3917 -10.4879,9.5372 l -7.6595,7.5372 -4.2755,6.2636 c -2.3515,3.4449 -6.4194,10.6282 -9.0397,15.9628 l -4.7642,9.6992 -3.6515,10.5 c -2.0084,5.775 -4.8124,15.225 -6.2313,21 l -2.5797,10.5 -0.9364,9.5 -0.9363,9.5 0.01,12.5 0.01,12.5 0.9444,7.2717 0.9444,7.2718 2.9953,7.4802 2.9952,7.4802 3.4595,5.4081 3.4594,5.408 5.5012,5.414 5.5012,5.414 5.8188,3.0754 5.8188,3.0754 7.6454,2.1235 c 4.2049,1.1679 10.2799,2.5083 13.5,2.9786 3.22,0.4704 10.8074,0.9101 16.8607,0.9771 z m 164.4939,-0.3694 13.5,-0.3868 8.5,-2.1755 8.5,-2.1756 5.5,-2.6002 c 3.025,-1.4301 7.975,-4.2532 11,-6.2735 3.025,-2.0203 7.7073,-5.8611 10.405,-8.5351 2.6978,-2.6741 6.6984,-7.2364 8.8902,-10.1384 2.1918,-2.9021 4.1172,-5.1445 4.2786,-4.9831 0.1613,0.1614 -0.343,4.7858 -1.1208,10.2765 -0.7777,5.4907 -1.4229,12.7956 -1.4336,16.2331 l -0.019,6.25 18.3531,0 18.3531,0 0.5611,-14.25 0.561,-14.25 2.6188,-18.5 c 1.4404,-10.175 3.7668,-25.25 5.1698,-33.5 1.4029,-8.25 3.8416,-22.2 5.4193,-31 1.5777,-8.8 4.077,-22.525 5.5541,-30.5 l 2.6856,-14.5 0.09,-12.5248 0.09,-12.5247 -2.8321,-5.7886 -2.832,-5.7885 -3.8404,-3.6867 -3.8404,-3.6867 -6.3051,-3.195 -6.3051,-3.1949 -9.3969,-2.0901 -9.3968,-2.0902 -12.9377,-0.9845 -12.9377,-0.9846 -16.6655,1.0311 c -9.166,0.5671 -22.0654,1.6869 -28.6654,2.4884 l -12,1.4574 -8.1783,0.031 -8.1783,0.031 -1.1899,5.75 c -0.6545,3.1625 -2.4732,10.6761 -4.0415,16.6969 -1.5684,6.0207 -2.7062,11.0922 -2.5285,11.2699 0.1777,0.1777 4.5516,-0.815 9.7198,-2.206 5.1682,-1.3911 16.1467,-3.6787 24.3967,-5.0836 l 15,-2.5544 13.5,-0.5564 13.5,-0.5564 8.6958,1.5243 8.6958,1.5242 5.8042,2.8648 5.8042,2.8647 3.25,4.844 3.25,4.844 -0.046,7.637 -0.046,7.637 -1.7228,8.3806 -1.7228,8.3807 -35.9815,0.1298 -35.9814,0.1298 -11.7762,3.2289 c -6.477,1.7759 -13.649,4.1337 -15.9379,5.2395 -2.2888,1.1059 -4.5783,2.0107 -5.0877,2.0107 -0.5094,0 -4.3624,2.1366 -8.5622,4.7479 l -7.636,4.7479 -6.0138,6.0021 c -3.3076,3.3012 -7.5333,8.2521 -9.3905,11.0021 -1.8571,2.75 -4.8745,8.4949 -6.7052,12.7664 l -3.3287,7.7664 -1.5277,8.7336 -1.5277,8.7336 0,9.162 0,9.1621 1.4595,7.6282 1.4596,7.6283 2.7078,4.9753 c 1.4894,2.7364 4.2225,6.7447 6.0737,8.9075 l 3.3658,3.9322 5.9812,3.6333 5.9811,3.6333 6.8462,1.9374 c 3.7655,1.0656 9.4965,2.3556 12.7357,2.8666 l 5.8894,0.9292 13.5,-0.3868 z m 12.5,-27.9624 -8,0.4171 -5.2985,-1.3494 c -2.9142,-0.7422 -7.3361,-2.3974 -9.8265,-3.6782 l -4.528,-2.3289 -2.4713,-2.9369 c -1.3592,-1.6154 -3.4356,-4.7894 -4.6142,-7.0535 l -2.1428,-4.1164 -0.4202,-9.613 -0.4201,-9.6129 1.6951,-5.8311 c 0.9324,-3.2071 3.1197,-8.7721 4.8608,-12.3668 l 3.1657,-6.5357 6.0621,-6.0203 6.0621,-6.0202 6.4379,-3.0997 6.4379,-3.0997 8,-1.9003 8,-1.9003 25,0 25,0 1.5817,0.654 1.5816,0.654 -1.3311,7.846 c -0.7322,4.3153 -2.4783,12.121 -3.8804,17.346 -1.4021,5.225 -3.8773,12.9058 -5.5005,17.0685 -1.6232,4.1627 -2.9513,7.8429 -2.9513,8.1783 0,0.3354 -1.6434,3.3686 -3.652,6.7404 l -3.6519,6.1306 -5.9967,5.9411 c -3.2981,3.2676 -6.3598,5.9411 -6.8036,5.9411 -0.4438,0 -2.4655,1.1255 -4.4925,2.5011 l -3.6856,2.501 -8.1088,2.5635 -8.1089,2.5635 -8,0.4171 z m 325.5,28.3199 9.5,0.1197 9,-1.4607 c 4.95,-0.8034 11.25,-2.0976 14,-2.8759 2.75,-0.7784 7.7,-2.7986 11,-4.4893 l 6,-3.074 5.1616,-4.5432 5.1616,-4.5432 5.4361,-7.2498 c 2.9899,-3.9873 5.6973,-7.9247 6.0166,-8.7497 l 0.5804,-1.5 -0.5048,5 c -0.2777,2.75 -0.9003,7.25 -1.3836,10 -0.4832,2.75 -1.1761,8.0375 -1.5397,11.75 l -0.6612,6.75 19.6165,0 19.6165,0 0,-6.75 0,-6.75 2.9886,-25.5 c 1.6438,-14.025 4.0745,-32.7 5.4016,-41.5 1.3271,-8.8 3.3755,-21.4 4.5521,-28 1.1765,-6.6 3.2602,-18.525 4.6303,-26.5 1.37,-7.975 3.8449,-21.925 5.4996,-31 1.6547,-9.075 4.303,-23.475 5.885,-32 1.5821,-8.525 4.041,-21.8 5.4642,-29.5 1.4233,-7.7 3.9732,-21.2 5.6664,-30 1.6933,-8.8 4.1668,-21.175 5.4966,-27.5 1.3299,-6.325 2.4161,-11.8375 2.4138,-12.25 l 0,-0.75 -21.4018,0 -21.4018,0 -0.6321,6.25 c -0.3476,3.4375 -1.9859,14.8 -3.6408,25.25 -1.6548,10.45 -4.3525,27.1 -5.9948,37 -1.6423,9.9 -3.2256,19.5001 -3.5184,21.3335 l -0.5323,3.3336 -1.689,-0.7182 c -0.9289,-0.3951 -5.964,-1.7917 -11.189,-3.1037 l -9.5,-2.3854 -13,-1.0124 -13,-1.0125 -11,1.025 -11,1.025 -10,2.5277 -10,2.5277 -9.5,4.6335 -9.5,4.6335 -7,5.1824 -7,5.1825 -6.0453,6.4816 c -3.3249,3.5649 -8.1282,9.4613 -10.674,13.1031 l -4.6288,6.6216 -5.4356,11.3107 c -2.9895,6.2209 -6.6276,14.4608 -8.0846,18.3108 -1.457,3.85 -4.0266,12.3844 -5.7103,18.9653 l -3.0611,11.9652 -1.5082,15.5348 -1.5081,15.5347 1.1325,12.5 1.1324,12.5 1.3389,4.5 c 0.7363,2.475 2.289,6.8846 3.4503,9.7992 l 2.1115,5.2992 3.8496,5.211 3.8497,5.2111 4.3955,3.6003 4.3956,3.6003 6,2.9792 c 3.3,1.6385 8.8358,3.7561 12.3018,4.7057 3.466,0.9496 9.091,2.0896 12.5,2.5334 3.409,0.4438 10.4732,0.8608 15.6982,0.9267 z m 17.0506,-28.3718 -7.5506,0.401 -5.0963,-0.9173 c -2.803,-0.5045 -7.2883,-1.8569 -9.9673,-3.0053 l -4.871,-2.088 -4.0987,-3.3585 -4.0987,-3.3586 -3.0459,-5.8338 -3.046,-5.8338 -1.388,-6.5 -1.3881,-6.5 0.1177,-13 0.1176,-13 1.612,-11.5 1.612,-11.5 2.5054,-8 c 1.3779,-4.4 2.512,-8.5513 2.5203,-9.225 0.01,-0.6737 1.3688,-4.2737 3.0234,-8 1.6547,-3.7263 4.4191,-9.475 6.1433,-12.775 1.7241,-3.3 4.9468,-8.4445 7.1615,-11.4322 2.2146,-2.9877 6.16,-7.4877 8.7674,-10 2.6074,-2.5123 6.7552,-5.8075 9.2172,-7.3227 l 4.4765,-2.7548 7.8628,-2.7208 7.8629,-2.7208 16.5,-0.01 16.5,0 9.5,2.6356 c 5.225,1.4495 10.7728,3.1306 12.3283,3.7357 l 2.8284,1.1001 -0.5524,2.745 c -0.3038,1.5097 -1.4923,8.1449 -2.6411,14.7449 -1.1488,6.6 -3.4124,19.2 -5.0304,28 -1.618,8.8 -4.1038,22.075 -5.5242,29.5 -1.4203,7.425 -3.4776,16.875 -4.5718,21 -1.0942,4.125 -2.6378,9.8385 -3.4304,12.6967 -0.7925,2.8582 -2.6797,7.8082 -4.1937,11 -1.514,3.1918 -4.1633,7.8283 -5.8873,10.3033 -1.7239,2.475 -4.6399,5.9035 -6.4799,7.6188 -1.84,1.7154 -5.8205,4.7637 -8.8455,6.7741 l -5.5,3.6552 -7.9494,2.5226 -7.9494,2.5227 -7.5506,0.401 z m -1471.75317,23.5057 24.2974,0 1.7433,-10.75 c 0.9587,-5.9125 2.8313,-17.275 4.1612,-25.25 1.3299,-7.975 3.8051,-22.825 5.5005,-33 1.6953,-10.175 4.2368,-25.25 5.6477,-33.5 1.4109,-8.25 3.6526,-21.0477 4.9815,-28.4394 1.329,-7.3916 2.6685,-13.6916 2.9768,-14 l 0.5605,-0.5606 65.3333,0 65.3333,0 0.7254,0.7252 0.7255,0.7252 -1.1329,5.7748 c -0.6231,3.1761 -2.4662,12.9748 -4.0957,21.7748 -1.6296,8.8 -4.3691,23.65 -6.0878,33 -1.7187,9.35 -4.2039,22.625 -5.5226,29.5 -1.3188,6.875 -3.9875,21.275 -5.9304,32 -1.943,10.725 -3.5286,20.0625 -3.5236,20.75 l 0.01,1.25 24.3973,0 24.3974,0 1.0795,-6.25 c 0.5938,-3.4375 1.5491,-9.625 2.123,-13.75 0.5738,-4.125 1.9572,-12.9 3.0741,-19.5 1.117,-6.6 3.3487,-19.65 4.9593,-29 1.6106,-9.35 4.3065,-25.325 5.9909,-35.5 1.6843,-10.175 4.18307,-25.025 5.55274,-33 1.36966,-7.975 3.81024,-21.475 5.42352,-30 1.61327,-8.525 4.30043,-22.925 5.97147,-32 1.67103,-9.075 4.17446,-22.8 5.56318,-30.5 1.38873,-7.7 3.92083,-21.65 5.62691,-31 1.70608,-9.35 3.8604,-20.2625 4.78737,-24.25 l 1.68541,-7.25 -24.70252,0 -24.70248,0 -0.6719,4.75 c -0.3695,2.6125 -1.5629,9.925 -2.6519,16.25 -1.0891,6.325 -3.07,17.575 -4.4022,25 -1.3322,7.425 -3.7667,21.6 -5.41,31.5 -1.6434,9.9 -3.7376,23.0052 -4.6539,29.1227 l -1.6661,11.1228 -36.2623,0.7339 -36.2624,0.7339 -30.3732,-0.7208 c -16.7053,-0.3964 -30.4658,-0.7995 -30.579,-0.8958 -0.1132,-0.096 0.4558,-3.9823 1.2644,-8.6358 0.8085,-4.6535 2.3382,-12.7359 3.3993,-17.9609 1.0611,-5.225 3.0726,-15.575 4.47,-23 1.3973,-7.425 2.9802,-16.65 3.5174,-20.5 0.5372,-3.85 1.6631,-10.2625 2.502,-14.25 0.8388,-3.9875 2.4308,-12.3868 3.5377,-18.665 1.1069,-6.2783 2.2862,-12.1283 2.6207,-13 l 0.6082,-1.585 -24.5031,0 -24.5031,0 -1.5694,8.75 c -0.8633,4.8125 -2.0142,11.675 -2.5577,15.25 -0.5435,3.575 -2.3686,15.05 -4.0558,25.5 -1.6871,10.45 -4.1778,25.975 -5.5347,34.5 -1.357,8.525 -3.8282,24.05 -5.4915,34.5 -1.6633,10.45 -4.4078,26.65 -6.0988,36 -1.691,9.35 -4.1392,22.625 -5.4404,29.5 -1.3013,6.875 -3.781,19.925 -5.5106,29 -1.7295,9.075 -4.2527,21.9 -5.607,28.5 -1.3544,6.6 -2.8516,14.25 -3.3273,17 -0.4756,2.75 -2.0235,10.6815 -3.4396,17.6256 -1.4162,6.9441 -2.5749,13.3566 -2.5749,14.25 l 0,1.6244 24.2974,0 z m 268.97895,0 21.50964,0 0.60699,-1.5818 c 0.33385,-0.87 0.60699,-3.152 0.60699,-5.0712 0,-1.9192 1.35258,-11.8949 3.00573,-22.1682 1.65315,-10.2734 4.38463,-27.0038 6.06995,-37.1788 1.68532,-10.175 4.17422,-25.025 5.53089,-33 1.35667,-7.975 3.76938,-21.25 5.36159,-29.5 1.59221,-8.25 4.03643,-21.075 5.4316,-28.5 1.39518,-7.425 4.1388,-21.5512 6.09695,-31.3916 1.95815,-9.8404 3.80448,-18.2867 4.10297,-18.7697 l 0.54271,-0.8781 -21.75189,0.2697 -21.75189,0.2697 -1.81158,13 c -0.99636,7.15 -3.17473,21.325 -4.84082,31.5 -1.66608,10.175 -4.1862,25.7 -5.60024,34.5 -1.41405,8.8 -3.88005,22.975 -5.48001,31.5 -1.59995,8.525 -4.05178,21.575 -5.44852,29 -1.39673,7.425 -3.90299,20.475 -5.56947,29 -1.66648,8.525 -3.90264,19.775 -4.96925,25 -1.06662,5.225 -2.21215,10.5125 -2.54564,11.75 l -0.60634,2.25 21.50964,0 z m 503.07388,0 21.35024,0 0.6413,-9.0339 c 0.3526,-4.9686 1.5609,-14.9811 2.6849,-22.25 1.1241,-7.2689 3.4255,-21.7661 5.1143,-32.2161 1.6889,-10.45 4.8276,-27.8438 6.9749,-38.6528 2.1473,-10.8091 4.5747,-21.5531 5.3942,-23.8758 0.8194,-2.3226 1.4899,-4.8394 1.4899,-5.5929 0,-0.7536 1.6052,-4.8595 3.5672,-9.1243 1.9619,-4.2648 5.6182,-10.7954 8.1251,-14.5123 l 4.5579,-6.7582 6.1013,-5.6486 6.1012,-5.6487 7.5236,-3.5932 7.5237,-3.5932 11.5,0.06 11.5,0.06 5.6539,1.6896 c 3.1097,0.9294 5.9222,1.6897 6.25,1.6897 0.3279,0 0.5961,-1.0631 0.5961,-2.3625 0,-1.2993 1.125,-7.8862 2.5,-14.6375 1.375,-6.7512 2.5,-12.5598 2.5,-12.9079 0,-0.3481 -3.2625,-1.625 -7.25,-2.8375 -3.9875,-1.2125 -9.5,-2.4825 -12.25,-2.8221 l -5,-0.6175 -6.5,1.1497 c -3.575,0.6323 -8.8908,2.0282 -11.8129,3.102 -2.922,1.0738 -7.7467,3.5092 -10.7215,5.4122 -2.9748,1.9029 -7.6022,5.6112 -10.2831,8.2405 -2.6809,2.6293 -7.1901,7.9306 -10.0205,11.7806 -2.8305,3.85 -5.7905,7.9 -6.578,9 l -1.4317,2 0.8693,-4 c 0.4782,-2.2 1.8099,-9.4 2.9595,-16 1.1496,-6.6 2.3295,-12.7875 2.6219,-13.75 l 0.5318,-1.75 -19.0674,0 -19.0674,0 0,2.4105 c 0,1.3258 -1.12538,9.3133 -2.50084,17.75 -1.37546,8.4368 -3.64358,22.5395 -5.04027,31.3395 -1.39669,8.8 -3.87553,24.1 -5.50854,34 -1.633,9.9 -4.11254,24.075 -5.51008,31.5 -1.39754,7.425 -3.87913,20.475 -5.51465,29 -1.63552,8.525 -4.35102,22.475 -6.03446,31 -1.68343,8.525 -3.69762,18.5927 -4.47597,22.3727 -0.77836,3.78 -1.41519,7.2675 -1.41519,7.75 l 0,0.8773 21.35026,0 z m 506.81954,0 21.8302,0 0,-6.6807 0,-6.6808 2.5156,-16.5692 c 1.3837,-9.1132 3.6663,-23.5443 5.0726,-32.0693 1.4063,-8.525 3.1592,-19.325 3.8952,-24 0.7361,-4.675 2.6867,-14.8 4.3348,-22.5 1.6481,-7.7 3.7066,-16.025 4.5746,-18.5 0.8679,-2.475 1.5846,-5.0717 1.5926,-5.7704 0.01,-0.6987 1.8689,-5.192 4.1353,-9.985 l 4.1208,-8.7146 5.4363,-7.2231 5.4363,-7.2231 5.9496,-4.4725 c 3.2723,-2.4598 8.5342,-5.7242 11.693,-7.2541 l 5.7433,-2.7817 12.5,0.086 12.5,0.086 4.9207,1.5802 4.9207,1.5801 0.8293,-0.5126 0.8293,-0.5125 0.042,-3.191 c 0.023,-1.755 1.0933,-8.2853 2.3786,-14.5118 l 2.337,-11.3209 -2.6287,-1.0291 c -1.4457,-0.566 -4.8786,-1.7376 -7.6286,-2.6036 l -5,-1.5745 -9,0.023 -9,0.023 -7.3346,2.5805 -7.3346,2.5804 -5.5072,3.3208 -5.5072,3.3208 -7.16,7.5 -7.1599,7.5 -3.8469,5.8181 c -2.1158,3.1999 -3.9786,5.6749 -4.1395,5.5 -0.161,-0.175 0.989,-6.8431 2.5555,-14.8181 1.5665,-7.975 2.8676,-15.5125 2.8913,-16.75 l 0.043,-2.2499 -18.5,0 -18.5,0 0,0.6372 c 0,0.3504 -0.9223,6.7629 -2.0496,14.25 -1.1272,7.487 -3.3906,21.9378 -5.0296,32.1128 -1.6391,10.175 -4.3285,26.6 -5.9764,36.5 -1.648,9.9 -4.1323,24.075 -5.5207,31.5 -1.3884,7.425 -3.8544,20.475 -5.4799,29 -1.6255,8.525 -4.2964,22.25 -5.9353,30.5 -1.6389,8.25 -3.8099,19.1625 -4.8244,24.25 l -1.8446,9.25 21.8303,0 z m -967.59794,-244.022 6.07186,0.022 4.82631,-1.6445 4.8263,-1.6445 4.27151,-4.3328 4.2715,-4.3329 2.24993,-5.7726 2.24993,-5.7727 0.0804,-8.5 0.0804,-8.5 -2,-3.3191 -2,-3.319 -3.48201,-2.1559 -3.48201,-2.1559 -7.51799,0 -7.51799,-10e-5 -5.11826,2.2915 -5.11826,2.2915 -2.97104,3.1835 -2.97105,3.1835 -2.33322,5.5 -2.33323,5.5 -0.44105,8.5672 -0.44105,8.5672 2.17225,4.258 2.17224,4.2579 4.19134,1.9029 4.19133,1.9029 6.07186,0.022 z"
     style="fill:#b3131b" />
</svg>
